<?xml version="1.0" encoding="UTF-8" standalone="no"?>
<svg
   width="64px"
   height="64px"
   viewBox="0 0 64 64"
   version="1.1"
   id="svg2"
   sodipodi:docname="FaceCards_King.svg"
   inkscape:version="1.3.2 (091e20e, 2023-11-25, custom)"
   xmlns:inkscape="http://www.inkscape.org/namespaces/inkscape"
   xmlns:sodipodi="http://sodipodi.sourceforge.net/DTD/sodipodi-0.dtd"
   xmlns="http://www.w3.org/2000/svg"
   xmlns:svg="http://www.w3.org/2000/svg">
  <defs
     id="defs2" />
  <sodipodi:namedview
     id="namedview2"
     pagecolor="#ffffff"
     bordercolor="#000000"
     borderopacity="0.25"
     inkscape:showpageshadow="2"
     inkscape:pageopacity="0.0"
     inkscape:pagecheckerboard="0"
     inkscape:deskcolor="#d1d1d1"
     inkscape:zoom="12.703125"
     inkscape:cx="32"
     inkscape:cy="32"
     inkscape:window-width="1920"
     inkscape:window-height="1009"
     inkscape:window-x="-8"
     inkscape:window-y="-8"
     inkscape:window-maximized="1"
     inkscape:current-layer="svg2" />
  <title
     id="title1">Demo_Games/AceyDeucy/v3/FaceCards_King</title>
  <g
     id="Demo_Games/AceyDeucy/v3/FaceCards_King"
     stroke="none"
     stroke-width="1"
     fill="none"
     fill-rule="evenodd">
    <g
       id="FaceCards_King"
       transform="translate(20, 15)"
       fill="#186FB5"
       fill-rule="nonzero">
      <rect
         id="Rectangle"
         x="4.16666667"
         y="13.9393939"
         width="5.95238095"
         height="1.81818182" />
      <ellipse
         id="Oval"
         cx="6.54761905"
         cy="17.5757576"
         rx="1.19047619"
         ry="1.21212121" />
      <path
         d="M19.6428571,4.24242424 L12.5,0 L5.35714286,4.24242424 L0,0 L0,40 L12.5,40 L25,40 L25,0 L19.6428571,4.24242424 Z M12.5,30.3030303 L7.14285714,30.3030303 C7.14285714,30.3030303 8.33333333,29.6969697 10.1190476,28.4848485 C11.9047619,27.2727273 12.5,25.4545455 12.5,25.4545455 C12.5,25.4545455 13.0952381,27.2727273 14.8809524,28.4848485 C16.6666667,29.6969697 17.8571429,30.3030303 17.8571429,30.3030303 L12.5,30.3030303 Z M22.0238095,26.6666667 C22.0238095,26.6666667 19.6428571,23.030303 17.2619048,22.4242424 C14.8809524,21.8181818 14.8809524,21.8181818 14.8809524,21.8181818 L12.5,21.8181818 L10.1190476,21.8181818 C10.1190476,21.8181818 10.1190476,21.8181818 7.73809524,22.4242424 C5.35714286,23.030303 2.97619048,26.6666667 2.97619048,26.6666667 L2.97619048,10.9090909 L12.5,10.9090909 L22.0238095,10.9090909 L22.0238095,26.6666667 Z"
         id="Shape" />
      <rect
         id="rect1"
         x="14.8809524"
         y="13.9393939"
         width="5.95238095"
         height="1.81818182" />
      <polygon
         id="Path"
         points="14.8809524 18.1818182 14.8809524 16.3636364 14.2857143 16.3636364 14.2857143 18.7878788 16.0714286 19.3939394 16.0714286 21.2121212 12.5 21.2121212 8.92857143 21.2121212 8.92857143 19.3939394 10.7142857 18.7878788 10.7142857 16.3636364 10.1190476 16.3636364 10.1190476 18.1818182 8.33333333 18.7878788 8.33333333 21.8181818 12.5 21.8181818 16.6666667 21.8181818 16.6666667 18.7878788" />
      <ellipse
         id="ellipse1"
         cx="18.452381"
         cy="17.5757576"
         rx="1.19047619"
         ry="1.21212121" />
    </g>
    <g
       id="K"
       transform="translate(0.5134, 0.6694)"
       fill="#186FB5"
       fill-rule="nonzero">
      <polygon
         id="polygon1"
         points="8.73242188 0 5.90185547 3.57763672 10.0771484 11.3305664 6.41650391 11.3305664 3.76025391 6.36669922 3.28710938 6.89794922 3.28710938 11.3305664 0 11.3305664 0 0 3.28710938 0 3.28710938 5.046875 7.18847656 0" />
    </g>
  </g>
</svg>
