<?xml version="1.0" encoding="UTF-8" standalone="no"?>
<svg
   width="64px"
   height="64px"
   viewBox="0 0 64 64"
   version="1.1"
   id="svg10"
   sodipodi:docname="FaceCards_Jack.svg"
   inkscape:version="1.3.2 (091e20e, 2023-11-25, custom)"
   xmlns:inkscape="http://www.inkscape.org/namespaces/inkscape"
   xmlns:sodipodi="http://sodipodi.sourceforge.net/DTD/sodipodi-0.dtd"
   xmlns="http://www.w3.org/2000/svg"
   xmlns:svg="http://www.w3.org/2000/svg">
  <defs
     id="defs10" />
  <sodipodi:namedview
     id="namedview10"
     pagecolor="#ffffff"
     bordercolor="#000000"
     borderopacity="0.25"
     inkscape:showpageshadow="2"
     inkscape:pageopacity="0.0"
     inkscape:pagecheckerboard="0"
     inkscape:deskcolor="#d1d1d1"
     inkscape:zoom="12.703125"
     inkscape:cx="32"
     inkscape:cy="32"
     inkscape:window-width="1920"
     inkscape:window-height="1009"
     inkscape:window-x="-8"
     inkscape:window-y="-8"
     inkscape:window-maximized="1"
     inkscape:current-layer="svg10" />
  <title
     id="title1">Demo_Games/AceyDeucy/v3/FaceCards_Jack</title>
  <g
     id="Demo_Games/AceyDeucy/v3/FaceCards_Jack"
     stroke="none"
     stroke-width="1"
     fill="none"
     fill-rule="evenodd">
    <g
       id="FaceCards_Jack"
       transform="translate(14, 15)"
       fill="#186FB5"
       fill-rule="nonzero">
      <path
         d="M12.7586207,15.9709544 C10.2068966,15.9709544 8.93103448,17.2282881 8.93103448,17.2282881 L16.5862069,17.2282881 C16.5862069,17.2282881 15.3103448,15.9709544 12.7586207,15.9709544 Z"
         id="Path" />
      <ellipse
         id="Oval"
         cx="13.467433"
         cy="19.4635482"
         rx="1.27586207"
         ry="1" />
      <path
         d="M24.8793103,26.6582915 C24.8793103,26.6582915 28.0689655,30.4302929 24.8793103,30.4302929 C24.1704981,30.4302929 22.3984674,28.1251809 21.0517241,27.2869584 C19.9885057,26.5884396 18.5,26.6582915 18.5,26.6582915 C18.5,26.6582915 17.0114943,26.5884396 15.9482759,27.2869584 C14.6015326,28.1251809 12.8295019,30.4302929 12.1206897,30.4302929 C8.93103448,30.4302929 12.1206897,26.6582915 12.1206897,26.6582915 C12.1206897,26.6582915 9.56896552,27.9156253 9.56896552,29.801626 C9.56896552,31.6876267 11.4827586,33.2942198 13.3965517,32.9449604 C15.0268199,32.6655529 18.5,29.801626 18.5,29.801626 C18.5,29.801626 21.9731801,32.6655529 23.6034483,32.9449604 C25.5172414,33.2942198 27.4310345,31.6876267 27.4310345,29.801626 C27.4310345,27.9156253 24.8793103,26.6582915 24.8793103,26.6582915 Z"
         id="path1" />
      <path
         d="M19.9885057,24.0737721 L19.9885057,18.4856219 L19.4923372,18.4856219 L19.4923372,24.2134758 L19.5632184,24.2833277 C20.059387,24.7722908 20.7681992,25.6105134 20.7681992,26.0296246 C20.697318,26.2391803 19.7049808,26.4487359 18.4291188,26.4487359 C18.4291188,26.4487359 17.862069,26.4487359 17.2950192,26.378884 C16.2318008,26.2391803 16.1609195,26.0296246 16.1609195,26.0296246 C16.1609195,25.6803652 16.8697318,24.7722908 17.3659004,24.2833277 L17.4367816,24.2134758 L17.4367816,18.4856219 L16.940613,18.4856219 L16.940613,24.0737721 C16.5862069,24.4230315 15.664751,25.4009577 15.664751,26.0296246 C15.664751,26.5884396 16.5153257,26.7281434 17.1532567,26.7979953 C17.7911877,26.8678471 18.4291188,26.8678471 18.4291188,26.8678471 C18.4291188,26.8678471 19.0670498,26.8678471 19.7049808,26.7979953 C20.3429119,26.7281434 21.1934866,26.5185878 21.1934866,26.0296246 C21.2643678,25.4009577 20.3429119,24.4230315 19.9885057,24.0737721 Z"
         id="path2" />
      <path
         d="M24.2413793,15.9709544 C26.7931034,15.9709544 28.0689655,17.2282881 28.0689655,17.2282881 L20.4137931,17.2282881 C20.4137931,17.2282881 21.6896552,15.9709544 24.2413793,15.9709544 Z"
         id="path3" />
      <ellipse
         id="ellipse3"
         cx="23.532567"
         cy="19.4635482"
         rx="1.27586207"
         ry="1" />
      <path
         d="M37,33.332729 C37,28.3033939 32.5344828,28.3033939 32.5344828,28.3033939 C32.5344828,22.2262806 32.4636015,16.288871 32.605364,10.2117578 C33.3141762,7.69709019 33.8103448,5.11257075 34.4482759,2.59790318 C31.967433,1.27071752 29.2030651,0.781754384 26.4386973,0.502346877 C23.7452107,0.153087493 21.1226054,-0.056468138 18.5,0.0133837389 C15.9482759,0.0133837389 13.3965517,0.153087493 10.7739464,0.432495 C9.07279693,0.642050631 7.44252874,0.851606261 5.81226054,1.3405694 C4.74904215,1.68982878 3.68582375,1.96923629 2.62260536,2.45819943 C2.62260536,2.45819943 2.55172414,2.52805131 2.55172414,2.59790318 C3.18965517,4.972867 3.61494253,7.27797893 4.25287356,9.65294275 C4.32375479,10.0022021 4.39463602,10.2816096 4.39463602,10.630869 C4.53639847,16.6381304 4.39463602,22.2961325 4.46551724,28.3033939 C4.46551724,28.3033939 0,28.3033939 0,33.332729 C0,36.8951747 2.19731801,37.5936935 3.04789272,37.7333972 C2.26819923,37.8032491 7.65517241,38.2223604 7.65517241,35.2187297 C7.65517241,33.891544 7.65517241,10.7007209 7.65517241,10.7007209 L29.3448276,10.7007209 C29.3448276,10.7007209 29.3448276,33.891544 29.3448276,35.2187297 C29.3448276,38.2223604 34.6609195,37.8032491 33.9521073,37.7333972 C34.802682,37.6635454 37,36.8951747 37,33.332729 Z"
         id="path4" />
      <path
         d="M18.5,40 C17.3659004,40 14.3888889,38.323555 11.7662835,36.2279986 C9.85249042,34.6912574 6.59195402,31.6876267 6.59195402,28.9634035 L7.44252874,28.9634035 C7.44252874,30.7097004 9.21455939,33.0846642 12.2624521,35.5993318 C14.8850575,37.6948881 17.6494253,39.2316294 18.5,39.2316294 C19.3505747,39.2316294 22.1149425,37.7647399 24.7375479,35.5993318 C27.7854406,33.0846642 29.5574713,30.7097004 29.5574713,28.9634035 L30.408046,28.9634035 C30.408046,31.6876267 27.2183908,34.6912574 25.2337165,36.2279986 C22.6111111,38.323555 19.6340996,40 18.5,40 Z"
         id="path5" />
      <path
         d="M7.01724138,30.360441 C7.01724138,30.360441 10.7739464,34.8309611 11.2701149,35.2500724 C11.7662835,35.6691836 15.9482759,38.6728143 15.9482759,38.6728143 L3.75670498,38.6728143 L7.01724138,30.360441 Z"
         id="path6" />
      <path
         d="M30.1245211,30.360441 C30.1245211,30.360441 26.3678161,34.8309611 25.8716475,35.2500724 C25.3754789,35.6691836 21.1934866,38.6728143 21.1934866,38.6728143 L33.3850575,38.6728143 L30.1245211,30.360441 Z"
         id="path7" />
    </g>
    <g
       id="J"
       transform="translate(1.3975, 0.6694)"
       fill="#186FB5"
       fill-rule="nonzero">
      <path
         d="M6.21728516,0 L6.21728516,7.28808594 C6.21728516,10.1490885 5.2101237,11.5795898 3.19580078,11.5795898 C2.30485026,11.5795898 1.54947917,11.326416 0.9296875,10.8200684 C0.309895833,10.3137207 0,9.69807943 0,8.97314453 C0,8.54150391 0.0885416667,7.99641927 0.265625,7.33789063 L1.46923828,7.01416016 C1.28108724,7.79996745 1.18701172,8.3671875 1.18701172,8.71582031 C1.18701172,9.94433594 1.55501302,10.5585937 2.29101563,10.5585937 C2.7171224,10.5585937 2.93017578,9.98307292 2.93017578,8.83203125 L2.93017578,0 L6.21728516,0 Z"
         id="path8" />
    </g>
  </g>
</svg>
